<?xml version="1.0" encoding="utf-8"?>
<svg xmlns="http://www.w3.org/2000/svg" viewBox="-29.3627 -1078.4409 558.726 364.095" width="558.726px" height="364.095px"><g id="object-0" transform="matrix(0.9999999999999999, 0, 0, 0.9999999999999999, 816.3703002929688, -1057.4869384765625)"><g><path id="path8615" d="M -579.626 -20.954 C -624.527 -20.954 -621.723 -1.482 -621.723 -1.482 L -621.673 18.69 L -578.825 18.69 L -578.825 24.747 L -638.691 24.747 C -638.691 24.747 -667.423 21.488 -667.423 66.793 C -667.423 112.098 -642.346 110.491 -642.346 110.491 L -627.379 110.491 L -627.379 89.468 C -627.379 89.468 -628.186 64.39 -602.702 64.39 C -577.218 64.39 -560.205 64.39 -560.205 64.39 C -560.205 64.39 -536.328 64.776 -536.328 41.315 C -536.328 17.854 -536.328 2.522 -536.328 2.522 C -536.328 2.522 -532.703 -20.954 -579.626 -20.954 L -579.626 -20.954 Z M -603.252 -7.389 C -598.989 -7.389 -595.544 -3.943 -595.544 0.32 C -595.544 4.583 -598.989 8.028 -603.252 8.028 C -607.515 8.028 -610.961 4.583 -610.961 0.32 C -610.961 -3.943 -607.515 -7.389 -603.252 -7.389 L -603.252 -7.389 Z" style="color:#000000;display:inline;overflow:visible;visibility:visible;fill:#2a6db2;fill-opacity:1;fill-rule:nonzero;stroke:none;stroke-width:1;marker:none"/><path style="color:#000000;display:inline;overflow:visible;visibility:visible;fill:#505050;fill-opacity:1;fill-rule:nonzero;stroke:none;stroke-width:1;marker:none" d="M -578.351 154.994 C -533.451 154.994 -536.255 135.523 -536.255 135.523 L -536.305 115.35 L -579.152 115.35 L -579.152 109.294 L -519.286 109.294 C -519.286 109.294 -490.554 112.552 -490.554 67.247 C -490.554 21.943 -515.632 23.549 -515.632 23.549 L -530.598 23.549 L -530.598 44.572 C -530.598 44.572 -529.792 69.65 -555.276 69.65 C -580.76 69.65 -597.772 69.65 -597.772 69.65 C -597.772 69.65 -621.649 69.264 -621.649 92.726 C -621.649 116.187 -621.649 131.518 -621.649 131.518 C -621.649 131.518 -625.274 154.994 -578.351 154.994 L -578.351 154.994 Z M -554.725 141.429 C -558.988 141.429 -562.433 137.984 -562.433 133.721 C -562.433 129.458 -558.988 126.012 -554.725 126.012 C -550.462 126.012 -547.016 129.458 -547.016 133.721 C -547.016 137.984 -550.462 141.429 -554.725 141.429 Z" id="path8620"/><path id="path3890" style="font-style:normal;font-variant:normal;font-weight:normal;font-stretch:normal;font-size:102.68504333px;line-height:125%;font-family:Sans;-inkscape-font-specification:Sans;letter-spacing:0px;word-spacing:0px;fill:#505050;fill-opacity:1;stroke:none" d="M -456.088 89.36 L -439.142 89.36 L -439.142 109.759 L -456.088 109.759 L -456.088 89.36 M -456.088 24.71 L -439.142 24.71 L -439.142 45.109 L -456.088 45.109 L -456.088 24.71"/><path id="path3892" style="font-style:normal;font-variant:normal;font-weight:normal;font-stretch:normal;font-size:102.68504333px;line-height:125%;font-family:Sans;-inkscape-font-specification:Sans;letter-spacing:0px;word-spacing:0px;fill:#2a6db2;fill-opacity:1;stroke:none" d="M -775.14 234.247 C -771.446 227.608 -767.565 224.386 -762.425 221.227 C -757.286 218.069 -750.698 216.811 -743.738 216.811 C -734.368 216.811 -727.14 220.104 -722.054 226.689 C -716.968 233.222 -714.425 242.538 -714.424 254.638 L -714.424 308.928 L -729.282 308.928 L -729.282 255.12 C -729.282 246.5 -730.808 240.102 -733.86 235.925 C -736.912 231.749 -741.57 229.661 -747.834 229.661 C -755.49 229.661 -761.54 232.204 -765.984 237.291 C -770.428 242.377 -772.65 249.311 -772.65 258.091 L -772.65 308.928 L -787.508 308.928 L -787.508 255.12 C -787.508 246.446 -789.034 240.048 -792.085 235.925 C -795.137 231.749 -799.849 229.661 -806.22 229.661 C -813.77 229.661 -819.766 232.231 -824.21 237.371 C -828.654 242.457 -830.876 249.364 -830.876 258.091 L -830.876 308.928 L -845.733 308.928 L -845.733 218.98 L -830.876 218.98 L -830.876 230.954 C -827.503 225.439 -823.997 222.94 -819.286 220.317 C -814.574 217.693 -808.442 216.811 -801.964 216.811 C -795.432 216.811 -789.89 218.471 -785.339 221.79 C -780.735 225.11 -777.335 227.929 -775.14 234.247"/><path id="path3894" style="font-style:normal;font-variant:normal;font-weight:normal;font-stretch:normal;font-size:102.68504333px;line-height:125%;font-family:Sans;-inkscape-font-specification:Sans;letter-spacing:0px;word-spacing:0px;fill:#2a6db2;fill-opacity:1;stroke:none" d="M -647.445 317.281 C -651.621 327.989 -655.69 334.976 -659.652 338.242 C -663.614 341.508 -668.915 343.141 -675.554 343.141 L -687.359 343.141 L -687.359 330.773 L -678.686 330.773 C -674.617 330.773 -671.458 329.809 -669.209 327.882 C -666.96 325.954 -664.471 321.403 -661.74 314.229 L -659.09 307.483 L -695.471 218.98 L -679.81 218.98 L -651.701 289.332 L -623.592 218.98 L -607.932 218.98 L -647.445 317.281"/><path id="path3896" style="font-style:normal;font-variant:normal;font-weight:normal;font-stretch:normal;font-size:102.68504333px;line-height:125%;font-family:Sans;-inkscape-font-specification:Sans;letter-spacing:0px;word-spacing:0px;fill:#505050;fill-opacity:1;stroke:none" d="M -588.898 183.964 L -554.846 183.964 L -554.846 195.448 L -574.12 195.448 L -574.12 319.128 L -554.846 319.128 L -554.846 330.612 L -588.898 330.612 L -588.898 183.964"/><path id="path3898" style="font-style:normal;font-variant:normal;font-weight:normal;font-stretch:normal;font-size:102.68504333px;line-height:125%;font-family:Sans;-inkscape-font-specification:Sans;letter-spacing:0px;word-spacing:0px;fill:#2a6db2;fill-opacity:1;stroke:none" d="M -508.988 295.436 L -508.988 343.141 L -523.846 343.141 L -523.846 218.98 L -508.988 218.98 L -508.988 232.633 C -505.883 227.279 -501.974 223.316 -497.262 220.746 C -492.497 218.123 -486.822 216.811 -480.236 216.811 C -469.314 216.811 -460.453 221.148 -453.653 229.822 C -446.8 238.495 -443.374 249.9 -443.374 264.034 C -443.374 278.169 -446.8 289.573 -453.653 298.247 C -460.453 306.921 -469.314 311.257 -480.236 311.257 C -486.822 311.257 -492.497 309.972 -497.262 307.402 C -501.974 304.779 -505.883 300.79 -508.988 295.436 M -463.459 238.495 C -467.903 232.285 -474.034 229.179 -481.85 229.179 C -489.667 229.179 -495.825 232.285 -500.322 238.495 C -504.766 244.653 -506.988 253.166 -506.988 264.034 C -506.988 274.903 -504.766 283.443 -500.322 289.654 C -495.825 295.811 -489.667 298.889 -481.85 298.889 C -474.034 298.889 -467.903 295.811 -463.459 289.654 C -458.962 283.443 -456.713 274.903 -456.713 264.034 C -456.713 253.166 -458.962 244.653 -463.459 238.495 Z"/><path id="path3900" style="font-style:normal;font-variant:normal;font-weight:normal;font-stretch:normal;font-size:102.68504333px;line-height:125%;font-family:Sans;-inkscape-font-specification:Sans;letter-spacing:0px;word-spacing:0px;fill:#2a6db2;fill-opacity:1;stroke:none" d="M -381.454 317.281 C -385.63 327.989 -389.699 334.976 -393.661 338.242 C -397.623 341.508 -402.923 343.141 -409.562 343.141 L -421.368 343.141 L -421.368 330.773 L -412.695 330.773 C -408.626 330.773 -405.467 329.809 -403.218 327.882 C -400.969 325.954 -398.48 321.403 -395.749 314.229 L -393.099 307.483 L -429.48 218.98 L -413.819 218.98 L -385.71 289.332 L -357.601 218.98 L -341.94 218.98 L -381.454 317.281"/><path id="path3902" style="font-style:normal;font-variant:normal;font-weight:normal;font-stretch:normal;font-size:102.68504333px;line-height:125%;font-family:Sans;-inkscape-font-specification:Sans;letter-spacing:0px;word-spacing:0px;fill:#505050;fill-opacity:1;stroke:none" d="M -287.007 183.964 L -287.007 330.612 L -321.059 330.612 L -321.059 319.128 L -301.865 319.128 L -301.865 195.448 L -321.059 195.448 L -321.059 183.964 L -287.007 183.964"/></g></g></svg>