<svg xmlns="http://www.w3.org/2000/svg" version="1.1"
    xmlns:xlink="http://www.w3.org/1999/xlink" width="512" height="512" x="0" y="0" viewBox="0 0 496 496" style="enable-background:new 0 0 512 512" xml:space="preserve" class="">
    <g>
        <path fill="#ffc729" d="M488 360v96c0 17.67-14.33 32-32 32H40c-17.67 0-32-14.33-32-32v-96h176c-8.84 0-16 7.16-16 16v16c0 17.67 14.33 32 32 32h96c17.67 0 32-14.33 32-32v-16c0-8.84-7.16-16-16-16z" opacity="1" data-original="#ffc729"></path>
        <path fill="#ffc729" d="M328 376v16c0 17.67-14.33 32-32 32h-96c-17.67 0-32-14.33-32-32v-16c0-8.84 7.16-16 16-16v8c0 4.42 3.58 8 8 8h112c4.42 0 8-3.58 8-8v-8c8.84 0 16 7.16 16 16z" opacity="1" data-original="#ffc729"></path>
        <path fill="#fcd770" d="M488 328v32H312v-24c0-4.42-3.58-8-8-8h120zM168 328h24c-4.42 0-8 3.58-8 8v24H8v-32h96z" opacity="1" data-original="#fcd770"></path>
        <path fill="#ffeaa7" d="M488 296v32h-64v-48h48c8.84 0 16 7.16 16 16zM312 280h48v48h-48zM232 280h48v48h-48zM104 280h64v48h-64zM56 280v48H8v-32c0-8.84 7.16-16 16-16z" opacity="1" data-original="#ffeaa7"></path>
        <path fill="#b27946" d="M424 280v48h-64V200c0-8.84 7.16-16 16-16h32c8.84 0 16 7.16 16 16z" opacity="1" data-original="#b27946" class=""></path>
        <path fill="#aab2bd" d="M376 136h32v48h-32z" opacity="1" data-original="#aab2bd"></path>
        <path fill="#e6e9ed" d="M488 32v80c0 4.42-3.58 8-8 8h-16c-4.42 0-8-3.58-8-8V32c0-4.42 3.58-8 8-8h16c4.42 0 8 3.58 8 8z" opacity="1" data-original="#e6e9ed"></path>
        <path fill="#ccd1d9" d="M456 48v48l-3.31 3.31c-3 3-7.07 4.69-11.32 4.69h-4.68c-15.85 0-28.69 12.84-28.69 28.69V136h-32v-17.94C376 92.62 355.38 72 329.94 72a43.29 43.29 0 0 0-16.58 3.3c-5.2 2.15-9.98 5.32-14.05 9.39-1.06 1.06-2.31 1.89-3.67 2.45s-2.83.86-4.33.86c-3.12 0-5.95-1.27-7.99-3.32a11.244 11.244 0 0 1-3.32-7.99c0-1.5.3-2.97.86-4.33s1.39-2.61 2.45-3.67a97.827 97.827 0 0 1 31.78-21.23A97.83 97.83 0 0 1 352.57 40h88.8c4.25 0 8.32 1.69 11.32 4.69zM344 168c0 20.9-13.36 38.67-32 45.26V328h-32V213.26c-18.64-6.59-32-24.36-32-45.26 0-26.51 21.49-48 48-48s48 21.49 48 48zm-32 0c0-8.84-7.16-16-16-16s-16 7.16-16 16 7.16 16 16 16 16-7.16 16-16z" opacity="1" data-original="#ccd1d9"></path>
        <path fill="#b4dd7f" d="M232 280v48h-64v-54.11A28.94 28.94 0 0 1 184 248h32c9.81 4.9 16 14.93 16 25.89z" opacity="1" data-original="#b4dd7f"></path>
        <path fill="#a0d468" d="M232 227.31c0 1.5-.3 2.97-.86 4.33s-1.39 2.61-2.45 3.67L216 248h-32l-12.69-12.69c-2.12-2.12-3.31-5-3.31-8 0-3.12 1.27-5.95 3.32-7.99 2.04-2.05 4.87-3.32 7.99-3.32H220.69c6.24 0 11.31 5.07 11.31 11.31z" opacity="1" data-original="#a0d468"></path>
        <path fill="#ccd1d9" d="M216 75.31V216h-32V75.31c0-7.24 2.88-14.19 8-19.31h16c2.56 2.56 4.56 5.58 5.92 8.86S216 71.69 216 75.31zM216 16v20.69c0 7.24-2.88 14.19-8 19.31h-16c-2.56-2.56-4.56-5.58-5.92-8.86S184 40.31 184 36.69V16c0-4.42 3.58-8 8-8h16c4.42 0 8 3.58 8 8zM152 136v16c0 26.51-21.49 48-48 48v128H56V200c-26.51 0-48-21.49-48-48v-16c0-26.51 21.49-48 48-48v48h48V88c13.26 0 25.26 5.37 33.94 14.06C146.63 110.74 152 122.74 152 136z" opacity="1" data-original="#ccd1d9"></path>
        <path fill="#ff826e" d="M312 360v8c0 4.42-3.58 8-8 8H192c-4.42 0-8-3.58-8-8v-32c0-4.42 3.58-8 8-8h112c4.42 0 8 3.58 8 8z" opacity="1" data-original="#ff826e"></path>
        <path d="M320 168c0-13.234-10.766-24-24-24s-24 10.766-24 24 10.766 24 24 24 24-10.766 24-24zm-32 0c0-4.411 3.589-8 8-8s8 3.589 8 8-3.589 8-8 8-8-3.589-8-8z" fill="#000000" opacity="1" data-original="#000000" class=""></path>
        <path d="M464 128h16c8.822 0 16-7.178 16-16V32c0-8.822-7.178-16-16-16h-16c-8.822 0-16 7.178-16 16v.928a24.098 24.098 0 0 0-6.627-.928h-88.804c-28.298 0-54.902 11.02-74.912 31.03A19.184 19.184 0 0 0 272 76.687C272 87.336 280.664 96 291.313 96a19.187 19.187 0 0 0 13.657-5.657C311.641 83.673 320.509 80 329.941 80 350.927 80 368 97.073 368 118.059v59.318c-9.311 3.302-16 12.195-16 22.624v72h-32V218.6c19.354-9.185 32-28.852 32-50.599 0-30.878-25.122-56-56-56s-56 25.122-56 56c0 21.748 12.646 41.415 32 50.599V272h-32.065c-.486-9.699-4.68-18.599-11.576-25.045l5.985-5.985a19.186 19.186 0 0 0 5.657-13.657c0-9.518-6.927-17.43-16-19.008V75.313c0-6.965-2.002-13.622-5.736-19.313C221.998 50.308 224 43.651 224 36.687V16c0-8.822-7.178-16-16-16h-16c-8.822 0-16 7.178-16 16v20.687c0 6.965 2.002 13.622 5.736 19.313C178.002 61.692 176 68.349 176 75.313v132.992c-9.073 1.578-16 9.491-16 19.008 0 5.16 2.009 10.01 5.657 13.657l5.984 5.985c-6.896 6.446-11.09 15.346-11.576 25.045H112v-64.57c27.103-3.894 48-27.268 48-55.43v-16c0-30.878-25.122-56-56-56h-8v48H64V80h-8c-30.878 0-56 25.122-56 56v16c0 28.163 20.897 51.537 48 55.43V272H24c-13.234 0-24 10.767-24 24v160c0 22.056 17.944 40 40 40h416c22.056 0 40-17.944 40-40V296c0-13.233-10.766-24-24-24h-40v-72c0-10.429-6.689-19.322-16-22.624v-44.69C416 121.28 425.28 112 436.686 112h4.687c2.275 0 4.499-.32 6.627-.928V112c0 8.822 7.178 16 16 16zm0-96h16v80h-16zm-80 112h16v32h-16zm-8 48h32c4.411 0 8 3.589 8 8v120h-48V200c0-4.411 3.589-8 8-8zm-56 184v16c0 13.233-10.767 24-24 24h-96c-13.233 0-24-10.767-24-24v-16c0-1.17.259-2.279.712-3.281C178.73 379.245 184.82 384 192 384h112c7.18 0 13.27-4.755 15.288-11.281A7.943 7.943 0 0 1 320 376zm-144-40v16H16v-16zm10.062-80h27.876c6.245 3.785 10.062 10.487 10.062 17.889V320h-48v-46.111c0-7.402 3.817-14.104 10.062-17.889zM192 336h112v32H192zm128 16v-16h160v16zm32-64v32h-32v-32zm-96-120c0-22.056 17.944-40 40-40s40 17.944 40 40c0 16.919-10.716 32.076-26.667 37.715L304 207.601V320h-16V207.601l-5.333-1.886C266.716 200.076 256 184.919 256 168zm16 152h-32v-32h32zM192 16h16v20.687c0 4.125-1.303 8.04-3.683 11.313h-8.635A19.154 19.154 0 0 1 192 36.687zm3.683 48h8.635a19.155 19.155 0 0 1 3.683 11.313V208h-16V75.313A19.14 19.14 0 0 1 195.683 64zm-16.37 160h41.373a3.316 3.316 0 0 1 3.313 3.313c0 .885-.345 1.717-.97 2.343L212.686 240h-25.372l-10.344-10.344a3.291 3.291 0 0 1-.97-2.342 3.317 3.317 0 0 1 3.313-3.314zM160 288v32h-48v-32zM16 152v-16c0-19.316 13.765-35.479 32-39.196V144h64V96.804c18.235 3.717 32 19.88 32 39.196v16c0 22.056-17.944 40-40 40h-8v128H64V192h-8c-22.056 0-40-17.944-40-40zm8 136h24v32H16v-24c0-4.411 3.589-8 8-8zm432 192H40c-13.234 0-24-10.767-24-24v-88h145.376a23.885 23.885 0 0 0-1.376 8v16c0 22.056 17.944 40 40 40h96c22.056 0 40-17.944 40-40v-16c0-2.805-.488-5.496-1.376-8H480v88c0 13.233-10.766 24-24 24zm16-192c4.411 0 8 3.589 8 8v24h-48v-32zM447.03 93.657A7.95 7.95 0 0 1 441.373 96h-4.687c-18.64 0-34.067 13.978-36.376 32H384v-9.941C384 88.25 359.749 64 329.941 64c-13.706 0-26.592 5.337-36.284 15.03a3.295 3.295 0 0 1-2.343.97 3.316 3.316 0 0 1-3.313-3.313c0-.885.345-1.718.971-2.344C305.958 57.355 328.544 48 352.568 48h88.804c2.137 0 4.146.832 5.657 2.343l.97.97v41.373z" fill="#000000" opacity="1" data-original="#000000" class=""></path>
    </g>
</svg>