<?xml version="1.0" encoding="utf-8"?>
<svg xmlns="http://www.w3.org/2000/svg" viewBox="810.1132 -1062.188 167.0828 116.31" width="167.083px" height="116.31px" preserveAspectRatio="none"><g id="g18" transform="matrix(1, 0, 0, 1, 751.3880615234375, -1122.6828002929688)"><rect style="fill:#ffffff;fill-opacity:1;stroke:none;stroke-width:1.18399" id="rect17" width="167.08281" height="116.30997" x="58.725174" y="60.494881" ry="12.000447"/><rect style="fill:#000000;fill-opacity:1;stroke:none;stroke-width:1.04929" id="rect17-3" width="151.51189" height="100.73914" x="66.510635" y="68.280281" ry="10.393905"/><path style="font-weight:bold;font-size:16.9333px;font-family:'Ubuntu Mono';-inkscape-font-specification:'Ubuntu Mono Bold';fill:#ffffff;stroke-width:1.31142" d="m 124.52019,104.09679 v 4.05741 a 3.175,3.175 135 0 1 -3.175,3.175 l -7.33071,0 a 3.175,3.175 135 0 0 -3.175,3.175 l 0,21.70989 a 3.175,3.175 135 0 1 -3.175,3.175 h -4.05741 a 3.175,3.175 45 0 1 -3.175,-3.175 l 0,-21.70989 a 3.175,3.175 45 0 0 -3.175,-3.175 h -7.330717 a 3.175,3.175 45 0 1 -3.175,-3.175 v -4.05741 a 3.175,3.175 135 0 1 3.175,-3.175 h 31.418837 a 3.175,3.175 45 0 1 3.175,3.175 z" id="text1-9-0-4-9-2-9-8-3-8-1-7-6" aria-label="T" transform="matrix(1.4961339,0,0,1.4961339,7.5596943,-61.118666)"/><path style="color:#000000;-inkscape-font-specification:'Ubuntu Mono Bold';fill:#ffffff;-inkscape-stroke:none" d="m -303.02547,937.09797 14.07242,21.48374 a 5.2472832,5.2472832 90.01889 0 1 -0.002,5.7533 l -14.07252,21.45302 a 1.8573075,1.8573075 61.631824 0 0 1.55299,2.87603 l 9.93138,0 a 6.3057385,6.3057385 151.38891 0 0 5.30171,-2.89192 l 13.79332,-21.42124 a 5.3452845,5.3452845 90.017358 0 0 0.002,-5.78497 l -13.79486,-21.45218 a 6.3011967,6.3011967 28.628445 0 0 -5.29996,-2.89305 l -9.92944,0 a 1.8587724,1.8587724 118.38707 0 0 -1.55489,2.87727 z" id="path4-08-1-6" transform="translate(392.30819,-842.7926)"/></g></svg>