<svg xmlns="http://www.w3.org/2000/svg" version="1.1" xmlns:xlink="http://www.w3.org/1999/xlink" width="512" height="512" x="0" y="0" viewBox="0 0 512 512" style="enable-background:new 0 0 512 512" xml:space="preserve" class=""><g><circle cx="256" cy="256" r="225.229" fill="#a3defe" opacity="1" data-original="#a3defe"></circle><path fill="#7acefa" d="M178.809 44.35C92.438 75.858 30.771 158.727 30.771 256c0 124.39 100.838 225.229 225.229 225.229 57.256 0 109.512-21.377 149.251-56.569C139.58 395.298 125.639 142.906 178.809 44.35z" opacity="1" data-original="#7acefa"></path><path fill="#f7ef87" d="M476.093 194.583H35.907c-15.689 0-28.407 12.718-28.407 28.407v66.02c0 15.689 12.718 28.407 28.407 28.407h440.186c15.689 0 28.407-12.718 28.407-28.407v-66.02c0-15.689-12.718-28.407-28.407-28.407z" opacity="1" data-original="#f7ef87"></path><path fill="#efd176" d="M35.907 194.583c-15.688 0-28.407 12.718-28.407 28.407v66.02c0 15.689 12.718 28.407 28.407 28.407H275.1c-30.164-19.995-42.899-74.938-30.332-122.834z" opacity="1" data-original="#efd176"></path><path d="M478.365 187.162c-7.871-25.404-20.202-49.361-36.162-70.662a7.54 7.54 0 0 0-1.274-1.69c-12.438-16.293-27.011-30.994-43.35-43.536-40.914-31.404-89.87-48.003-141.576-48.004H256c-37.727 0-75.195 9.237-108.352 26.712a7.501 7.501 0 0 0 6.993 13.27c25.118-13.237 52.887-21.417 81.291-24.048-20.694 20.712-39.721 45.999-55.546 73.422H92.203a217.914 217.914 0 0 1 32.761-30.524 7.5 7.5 0 0 0-9.037-11.973C98.942 82.95 83.84 98.072 71.012 114.886c-.424.434-.792.92-1.101 1.446-16.016 21.332-28.38 45.339-36.276 70.83C14.891 188.339 0 203.954 0 222.989v66.02c0 19.036 14.891 34.651 33.635 35.828 7.87 25.402 20.201 49.359 36.16 70.659a7.515 7.515 0 0 0 1.277 1.694c12.438 16.293 27.01 30.993 43.35 43.534 40.915 31.404 89.871 48.004 141.578 48.004 41.421 0 82.096-11.021 117.626-31.872a7.502 7.502 0 0 0 2.673-10.265 7.502 7.502 0 0 0-10.265-2.673c-27.467 16.12-58.229 25.95-89.957 28.878 20.689-20.713 39.715-46.003 55.539-73.424h88.276a220.539 220.539 0 0 1-25.259 24.523 7.5 7.5 0 0 0 4.782 13.281 7.47 7.47 0 0 0 4.775-1.72c35.239-29.132 60.797-67.287 74.178-110.619C497.11 323.659 512 308.045 512 289.01v-66.02c0-19.036-14.892-34.651-33.635-35.828zm-46.581-59.535c13.235 18.111 23.688 38.206 30.796 59.456h-98.057c-6.252-20.083-14.64-40.166-24.673-59.456zm-43.34-44.452a217.733 217.733 0 0 1 31.348 29.452h-88.177c-15.831-27.434-34.867-52.729-55.57-73.445 40.938 3.694 79.458 18.708 112.399 43.993zM256 40.77c21.52 19.485 41.514 44.384 58.222 71.857H197.777C214.485 85.154 234.479 60.255 256 40.77zm-66.878 86.857h133.756c10.472 19.162 19.286 39.271 25.896 59.456H163.226c6.61-20.185 15.424-40.294 25.896-59.456zm-108.911 0h91.938c-10.033 19.29-18.421 39.372-24.673 59.456H49.419c7.111-21.266 17.56-41.352 30.792-59.456zm.005 256.746c-13.235-18.111-23.688-38.207-30.796-59.456h98.058c6.252 20.083 14.639 40.166 24.672 59.456zm43.34 44.452c-11.42-8.765-21.915-18.657-31.348-29.452h88.177c15.829 27.43 34.862 52.728 55.558 73.444-40.933-3.696-79.449-18.709-112.387-43.992zM256 471.23c-21.521-19.485-41.515-44.384-58.223-71.858h116.445C297.514 426.846 277.52 451.745 256 471.23zm66.878-86.857H189.122c-10.472-19.162-19.288-39.272-25.9-59.456h185.556c-6.612 20.184-15.428 40.294-25.9 59.456zm109.049 0H339.85c10.033-19.29 18.42-39.372 24.672-59.456h98.067a216.097 216.097 0 0 1-30.662 59.456zM497 289.01c0 11.528-9.379 20.907-20.907 20.907H35.906C24.379 309.917 15 300.538 15 289.01v-66.02c0-11.527 9.379-20.906 20.907-20.906h3.319l.028.002.024-.002h319.653l.024.002.028-.002h113.74l.024.002.028-.002h3.318c11.528 0 20.907 9.379 20.907 20.906zm-308.316-68.473a7.502 7.502 0 0 0-9.613 4.482l-13.636 37.467-13.637-37.467a7.5 7.5 0 0 0-14.096 0l-13.637 37.467-13.636-37.467a7.5 7.5 0 0 0-14.096 5.131l20.684 56.83a7.5 7.5 0 0 0 14.096 0l13.637-37.467 13.637 37.467a7.5 7.5 0 0 0 14.096 0l20.684-56.83a7.501 7.501 0 0 0-4.483-9.613zm222.501 0a7.496 7.496 0 0 0-9.613 4.482l-13.637 37.467-13.637-37.467a7.499 7.499 0 0 0-14.096 0l-13.637 37.467-13.637-37.467a7.5 7.5 0 0 0-14.095 5.131l20.685 56.83a7.5 7.5 0 0 0 14.096 0l13.637-37.467 13.637 37.467a7.5 7.5 0 0 0 14.096 0l20.685-56.83a7.504 7.504 0 0 0-4.484-9.613zm-111.25 0a7.496 7.496 0 0 0-9.613 4.482l-13.637 37.467-13.637-37.467a7.499 7.499 0 0 0-14.096 0l-13.637 37.467-13.636-37.467a7.5 7.5 0 0 0-14.096 5.131l20.684 56.83a7.5 7.5 0 0 0 14.096 0L256 249.514l13.637 37.467a7.5 7.5 0 0 0 14.096 0l20.685-56.83a7.503 7.503 0 0 0-4.483-9.614z" fill="#000000" opacity="1" data-original="#000000" class=""></path></g></svg>